<?xml version="1.0" encoding="UTF-8" standalone="no"?><!DOCTYPE svg PUBLIC "-//W3C//DTD SVG 1.1//EN" "http://www.w3.org/Graphics/SVG/1.1/DTD/svg11.dtd"><svg width="100%" height="100%" viewBox="0 0 195 294" version="1.1" xmlns="http://www.w3.org/2000/svg" xmlns:xlink="http://www.w3.org/1999/xlink" xml:space="preserve" xmlns:serif="http://www.serif.com/" style="fill-rule:evenodd;clip-rule:evenodd;stroke-linejoin:round;stroke-miterlimit:2;"><g><path d="M184.774,91.174l-58.249,0.06c-3.734,-2.872 -7.934,-5.385 -11.336,-6.415c-7.107,-2.146 -6.288,-4.215 -5.938,-4.736c0.67,-0.337 1.659,-0.655 3.082,-0.931c2.297,-0.437 5.565,0.366 5.565,0.366c5.101,0.887 7.265,-1.632 3.188,-4.604c-2.197,-1.596 -3.561,-2.066 -9.755,-4.803c-4.056,-1.791 -3.493,-6.33 -1.913,-6.495c2.45,-0.253 9.054,1.818 4.412,-3.389c0,0 -3.599,-3.547 -6.206,-4.534c-2.606,-0.994 -0.015,-2.554 0.924,-3.043c0.941,-0.49 4.236,-1.402 -0.384,-4.908c0,0 -8.108,-4.924 -4.93,-7.241c3.273,-2.388 4.54,-4.24 1.503,-4.449c-2.153,-0.151 -4.249,-0.928 -3.708,-3.1c0.131,-0.768 1.974,-2.026 2.59,-2.795c0.81,-1.012 0.113,-1.364 -0.333,-1.481c-0.241,-0.056 -0.521,-0.086 -0.865,-0.086c-1.601,0.008 -2.534,-0.919 -3.354,-3.088c-0.985,-3.942 -1.666,-7.484 -1.666,-7.484c-0.04,0 -0.086,-0.012 -0.138,-0.012l-0.004,0c-0.697,0.005 -0.73,0.449 -1.21,2.549c-1.582,6.973 -2.37,9.644 -5.094,9.638c-0.355,-0.001 -0.636,0.029 -0.875,0.074c-0.452,0.127 -1.133,0.479 -0.325,1.487c1.118,1.398 3.759,2.635 3.811,3.644c0.049,0.877 -0.684,1.669 -1.726,2.636c-1.072,1.076 -3.74,2.858 -3.74,2.858c-0,-0 -3.301,2.039 -3.882,3.169c-0.733,1.692 3.04,1.596 3.04,1.596c6.723,0.254 3.902,2.729 2.805,3.115c-1.736,0.612 -3.181,1 -4.942,1.998c-2.212,1.419 -4.428,3.597 -4.428,3.597c-4.648,5.211 1.954,3.139 4.407,3.392c1.579,0.163 2.148,4.702 -1.916,6.49c-2.594,1.151 -4.336,1.9 -5.655,2.495c-0.664,0.356 -3.028,1.677 -4.473,3.752c-1.547,2.221 3.124,1.502 6.321,1.752c2.082,0.164 4.539,-1.54 6.039,-1.392c1.877,0.196 2.459,0.586 2.753,1.783c0.326,1.295 -0.622,2.587 -2.016,3.724c-0.412,0.527 -1.125,0.957 -1.611,1.169c-0.034,0.016 -0.074,0.033 -0.112,0.055c-1.96,1.219 -4.098,2.14 -4.972,2.494c-6.383,3.422 -15.859,9.155 -19.781,13.55c-2.924,3.275 -0.523,5.06 0.736,4.499c1.263,-0.569 3.428,-1.837 6.817,-1.164c2.737,0.54 6.327,-0.362 9.133,-1.1l0.003,-0c2.476,-0.531 4.87,-4.677 5.842,-3.083c2.334,3.814 -1.668,8.296 -3.269,9.856c-3.109,4.144 -11.73,7.908 -15.193,10.716c-4.029,3.256 -5.678,7.52 -6.774,15.91c-1.085,8.39 3.274,2.398 3.274,2.398c1.088,-1.307 3.595,-4.274 10.023,-4.274c6.432,0 7.652,-1.849 9.908,-3.132c4.102,-2.324 1.969,3.132 1.969,3.132c-2.727,6.055 -7.606,6.1 -13.056,9.523c-0.485,0.354 -0.931,0.809 -1.964,1.832c-2.295,2.255 -1.565,3.184 -0.309,2.994c1.245,-0.19 3.239,0.587 5.316,0.518c2.173,-0.072 4,-0.511 6.434,-1.568c2.434,-1.059 3.675,-3.033 5.228,-2.036c1.039,0.663 0.837,2.352 0.582,3.409c-0.071,1.232 -1.62,3.436 -2.49,4.406c-1.466,1.656 -9.622,6.985 -12.476,8.295c-0.388,0.175 -0.764,0.359 -1.131,0.552c-0.109,0.077 -0.226,0.158 -0.368,0.229c-3.757,2.135 -6.252,5.361 -6.252,5.361c-0.659,0.951 -4.065,6.427 0.594,4.059c4.666,-2.367 10.88,1.64 13.961,0.113c1.812,-0.893 1.189,2.76 1.126,3.108c-0.012,1.222 -0.215,2.466 -0.415,2.876c-1.367,2.711 -2.406,2.536 -7.348,4.652l-28.838,-0l-30.7,-30.737l-0,-100.167l36.079,-34.674l102.569,0l36.086,34.731l0,46.309Zm-72.824,55.997c3.791,0.995 5.732,3.631 12.211,1.886c0,0 2.69,-0.53 4.326,0.316c1.647,0.847 5.946,-0.326 -2.074,-5.951c-5.847,-4.092 -11.148,-3.757 -14.044,-10.172c0,0 -1.065,-1.928 -0.555,-2.881l-0.006,-0.001c0.236,-0.56 1.727,-2.041 3.775,-1.315c2.006,0.711 9.355,3.869 12.426,4.599c1.65,0.376 2.905,0.979 3.864,1.623c1.366,0.816 5.601,2.35 5.585,-0.797c-0.718,-5.228 -1.69,-8.798 -3.38,-11.535l19.991,0.008l30.705,30.688l0,95.592l-36.086,34.725l-10.139,-0.004c-5.292,-0.059 -13.219,-3.198 -15.649,-6.103c-5.276,-6.307 -8.115,-5.604 -11.852,-9.342c-4.558,-4.556 -5.613,-9.92 -5.855,-15.557l0,-25.133c0,0 -0.402,-5.089 3.638,-1.945c4.027,3.138 6.294,2.785 13.097,2.257c6.805,-0.538 14.265,5.587 18.179,7.98c3.914,2.396 11.885,8.361 3.648,-12.474c-1.59,-4.026 -6.34,-6.817 -8.79,-8.036c-1.504,-0.807 -3.71,-3.54 -1.669,-5.856c0,-0 4.083,-3.608 1.87,-6.072c-0.729,-0.883 -2.552,-1.745 -6.573,-2.245c-4.602,-0.565 -9.42,-3.392 -11.293,-7.894c-0.361,-2.946 3.658,-4.044 5.663,-2.69c2.074,1.378 6.454,2.898 8.88,3.231c7.602,1.041 6.738,0.364 5.898,-2.008c-0.522,-1.467 -1.691,-4.958 -6.657,-7.562c-10.452,-5.465 -11.684,-4 -13.491,-7.584c-0.516,-1.025 -1.009,-7.277 1.495,-5.399c0.037,0.028 0.054,0.041 0.085,0.055c0.477,0.506 1.035,1.108 1.717,1.63c2.611,2.023 4.684,2.286 8.35,2.197c3.662,-0.074 4.083,1.408 5.56,2.086c1.476,0.682 3.452,1.895 1.636,-3.615c-1.921,-5.83 -5.139,-10.419 -11.331,-13.25c-2.852,-1.311 -11.005,-6.639 -12.472,-8.292c-1.366,-1.543 -4.469,-6.16 -0.683,-5.16Zm-22.617,74.735l0,2.426l-0.006,0.005l0,3.637l-0.023,-0.157l0,15.221c-0.092,7.304 -0.62,14.024 -3.578,16.975c-2.803,2.803 -7.214,6.09 -9.715,9.963c-3.307,5.115 -7.382,13.4 -18.288,13.928l-11.604,-0.004l-36.079,-34.732l0.017,-41.193l45.694,-0c-0,-0 0.007,-0.002 0.009,-0.004l6.882,0c-0.736,0.71 -1.568,1.079 -1.568,1.079c0,0 -8.125,3.213 -10.306,8.723c-1.563,3.948 -2.54,6.931 -3.072,9.164l0.028,0.001c-1.122,4.929 1.635,6.993 3.585,4.484c3.142,-4.034 14.137,-9.644 17.942,-9.986c3.821,-0.331 10.435,-0 14.361,-4.15c3.928,-4.148 5.721,-4.031 5.721,-2.515l0,6.561c0.005,0.263 0.005,0.478 0,0.574Zm100.461,-179.175l-39.088,-37.615l-106.599,-0l-39.087,37.554l-0,104.38l33.639,33.678l21.695,0.008c-2.437,2.142 -3.187,4.374 -3.578,5.47c-0.841,2.374 -1.702,3.051 5.9,2.009c2.425,-0.332 6.812,-1.855 8.876,-3.233c2.009,-1.355 6.026,-0.255 5.665,2.693c-1.874,4.504 -6.684,7.324 -11.291,7.893c-10.565,1.304 -6.007,5.171 -6.007,5.171c1.171,0.792 2.007,1.537 2.6,2.224l-5.144,-0c-0.001,-0.004 -0.006,-0.006 -0.006,-0.006l-52.327,-0.002l-0.022,48.349l39.08,37.676l106.606,0l39.088,-37.613l0,-99.807l-33.647,-33.629l-27.179,0.003c-2.167,-1.406 -5.089,-2.995 -7.746,-4.709c-0.006,-0.007 -0.013,-0.008 -0.024,-0.013c-1.02,-0.586 -2.025,-1.311 -2.972,-2.116c-0.809,-0.639 -1.53,-1.297 -2.125,-1.957c-2.358,-2.397 -4.12,-4.915 -4.586,-6.063c-0.865,-2.129 -0.667,-4.819 1.306,-3.705c5.021,2.848 13.281,3.384 16.343,3.481c0.347,-0.005 2.824,0.27 3.399,0.452c0.616,0.24 1.573,0.692 1.573,0.692c1.234,0.52 3.481,-1.168 0.893,-4.276c-0.687,-1.068 -1.696,-2.275 -2.905,-3.527l57.67,0.005l0,-53.467Z" style="fill:#fff;fill-rule:nonzero;"/><path d="M112.633,152.331c1.467,1.653 9.62,6.981 12.472,8.292c6.192,2.831 9.41,7.42 11.331,13.25c1.816,5.51 -0.16,4.297 -1.636,3.615c-1.477,-0.678 -1.898,-2.16 -5.56,-2.086c-3.666,0.089 -5.739,-0.174 -8.35,-2.197c-0.682,-0.522 -1.24,-1.124 -1.717,-1.63c-0.031,-0.014 -0.048,-0.027 -0.085,-0.055c-2.504,-1.878 -2.011,4.374 -1.495,5.399c1.807,3.584 3.039,2.119 13.491,7.584c4.966,2.604 6.135,6.095 6.657,7.562c0.84,2.372 1.704,3.049 -5.898,2.008c-2.426,-0.333 -6.806,-1.853 -8.88,-3.231c-2.005,-1.354 -6.024,-0.256 -5.663,2.69c1.873,4.502 6.691,7.329 11.293,7.894c4.021,0.5 5.844,1.362 6.573,2.245c2.213,2.464 -1.87,6.072 -1.87,6.072c-2.041,2.316 0.165,5.049 1.669,5.856c2.45,1.219 7.2,4.01 8.79,8.036c8.237,20.835 0.266,14.87 -3.648,12.474c-3.914,-2.393 -11.374,-8.518 -18.179,-7.98c-6.803,0.528 -9.07,0.881 -13.097,-2.257c-4.04,-3.144 -3.638,1.945 -3.638,1.945l0,25.133c0.242,5.637 1.297,11.001 5.855,15.557c3.737,3.738 6.576,3.035 11.852,9.342c2.43,2.905 10.357,6.044 15.649,6.103l10.139,0.004l36.086,-34.725l0,-95.592l-30.705,-30.688l-19.991,-0.008c1.69,2.737 2.662,6.307 3.38,11.535c0.016,3.147 -4.219,1.613 -5.585,0.797c-0.959,-0.644 -2.214,-1.247 -3.864,-1.623c-3.071,-0.73 -10.42,-3.888 -12.426,-4.599c-2.048,-0.726 -3.539,0.755 -3.775,1.315l0.006,0.001c-0.51,0.953 0.555,2.881 0.555,2.881c2.896,6.415 8.197,6.08 14.044,10.172c8.02,5.625 3.721,6.798 2.074,5.951c-1.636,-0.846 -4.326,-0.316 -4.326,-0.316c-6.479,1.745 -8.42,-0.891 -12.211,-1.886c-3.786,-1 -0.683,3.617 0.683,5.16Z" style="fill:#a90432;fill-rule:nonzero;"/><path d="M76.011,269.976c2.501,-3.873 6.912,-7.16 9.715,-9.963c2.958,-2.951 3.486,-9.671 3.578,-16.975l0,-15.221l0.023,0.157l0,-3.637l0.006,-0.005l0,-2.426c0.005,-0.096 0.005,-0.311 0,-0.574l0,-6.561c0,-1.516 -1.793,-1.633 -5.721,2.515c-3.926,4.15 -10.54,3.819 -14.361,4.15c-3.805,0.342 -14.8,5.952 -17.942,9.986c-1.95,2.509 -4.707,0.445 -3.585,-4.484l-0.028,-0.001c0.532,-2.233 1.509,-5.216 3.072,-9.164c2.181,-5.51 10.306,-8.723 10.306,-8.723c0,0 0.832,-0.369 1.568,-1.079l-6.882,0c-0.002,0.002 -0.005,0.004 -0.005,0.004l-45.698,-0l-0.017,41.193l36.079,34.732l11.604,0.004c10.906,-0.528 14.981,-8.813 18.288,-13.928Z" style="fill:#a90432;fill-rule:nonzero;"/><path d="M46.119,10.134l-36.079,34.674l-0,100.167l30.7,30.737l28.838,-0c4.942,-2.116 5.981,-1.941 7.348,-4.652c0.2,-0.41 0.403,-1.654 0.415,-2.876c0.063,-0.348 0.686,-4.001 -1.126,-3.108c-3.081,1.527 -9.295,-2.48 -13.961,-0.113c-4.659,2.368 -1.253,-3.108 -0.594,-4.059c-0,0 2.495,-3.226 6.252,-5.361c0.142,-0.071 0.259,-0.152 0.368,-0.229c0.367,-0.193 0.743,-0.377 1.131,-0.552c2.854,-1.31 11.01,-6.639 12.476,-8.295c0.87,-0.97 2.419,-3.174 2.49,-4.406c0.255,-1.057 0.457,-2.746 -0.582,-3.409c-1.553,-0.997 -2.794,0.977 -5.228,2.036c-2.434,1.057 -4.261,1.496 -6.434,1.568c-2.077,0.069 -4.071,-0.708 -5.316,-0.518c-1.256,0.19 -1.986,-0.739 0.309,-2.994c1.033,-1.023 1.479,-1.478 1.964,-1.832c5.45,-3.423 10.329,-3.468 13.056,-9.523c0,0 2.133,-5.456 -1.969,-3.132c-2.256,1.283 -3.476,3.132 -9.908,3.132c-6.428,0 -8.935,2.967 -10.023,4.274c-0,-0 -4.359,5.992 -3.274,-2.398c1.096,-8.39 2.745,-12.654 6.774,-15.91c3.463,-2.808 12.084,-6.572 15.193,-10.716c1.601,-1.56 5.603,-6.042 3.269,-9.856c-0.972,-1.594 -3.366,2.552 -5.842,3.083l-0.003,-0c-2.806,0.738 -6.396,1.64 -9.133,1.1c-3.389,-0.673 -5.554,0.595 -6.817,1.164c-1.259,0.561 -3.66,-1.224 -0.736,-4.499c3.922,-4.395 13.398,-10.128 19.781,-13.55c0.874,-0.354 3.012,-1.275 4.972,-2.494c0.038,-0.022 0.078,-0.039 0.112,-0.055c0.486,-0.212 1.199,-0.642 1.611,-1.169c1.394,-1.137 2.342,-2.429 2.016,-3.724c-0.294,-1.197 -0.876,-1.587 -2.753,-1.783c-1.5,-0.148 -3.957,1.556 -6.039,1.392c-3.197,-0.25 -7.868,0.469 -6.321,-1.752c1.445,-2.075 3.809,-3.396 4.473,-3.752c1.319,-0.595 3.061,-1.344 5.655,-2.495c4.064,-1.788 3.495,-6.327 1.916,-6.49c-2.453,-0.253 -9.055,1.819 -4.407,-3.392c0,0 2.216,-2.178 4.428,-3.597c1.761,-0.998 3.206,-1.386 4.942,-1.998c1.097,-0.386 3.918,-2.861 -2.805,-3.115c0,-0 -3.773,0.096 -3.04,-1.596c0.581,-1.13 3.882,-3.169 3.882,-3.169c-0,-0 2.668,-1.782 3.74,-2.858c1.042,-0.967 1.775,-1.759 1.726,-2.636c-0.052,-1.009 -2.693,-2.246 -3.811,-3.644c-0.808,-1.008 -0.127,-1.36 0.325,-1.487c0.239,-0.045 0.52,-0.075 0.875,-0.074c2.724,0.006 3.512,-2.665 5.094,-9.638c0.48,-2.1 0.513,-2.544 1.21,-2.549l0.004,0c0.052,0 0.098,0.012 0.138,0.012c0,0 0.681,3.542 1.666,7.484c0.82,2.169 1.753,3.096 3.354,3.088c0.344,-0 0.624,0.03 0.865,0.086c0.446,0.117 1.143,0.469 0.333,1.481c-0.616,0.769 -2.459,2.027 -2.59,2.795c-0.541,2.172 1.555,2.949 3.708,3.1c3.037,0.209 1.77,2.061 -1.503,4.449c-3.178,2.317 4.93,7.241 4.93,7.241c4.62,3.506 1.325,4.418 0.384,4.908c-0.939,0.489 -3.53,2.049 -0.924,3.043c2.607,0.987 6.206,4.534 6.206,4.534c4.642,5.207 -1.962,3.136 -4.412,3.389c-1.58,0.165 -2.143,4.704 1.913,6.495c6.194,2.737 7.558,3.207 9.755,4.803c4.077,2.972 1.913,5.491 -3.188,4.604c0,0 -3.268,-0.803 -5.565,-0.366c-1.423,0.276 -2.412,0.594 -3.082,0.931c-0.35,0.521 -1.169,2.59 5.938,4.736c3.402,1.03 7.602,3.543 11.336,6.415l58.249,-0.06l0,-46.309l-36.086,-34.731l-102.569,0Z" style="fill:#a90432;fill-rule:nonzero;"/><path d="M189.794,96.198l-57.67,-0.005c1.209,1.252 2.218,2.459 2.905,3.527c2.588,3.108 0.341,4.796 -0.893,4.276c0,0 -0.957,-0.452 -1.573,-0.692c-0.575,-0.182 -3.052,-0.457 -3.399,-0.452c-3.062,-0.097 -11.322,-0.633 -16.343,-3.481c-1.973,-1.114 -2.171,1.576 -1.306,3.705c0.466,1.148 2.228,3.666 4.586,6.063c0.595,0.66 1.316,1.318 2.125,1.957c0.947,0.805 1.952,1.53 2.972,2.116c0.011,0.005 0.018,0.006 0.024,0.013c2.657,1.714 5.579,3.303 7.746,4.709l27.179,-0.003l33.647,33.629l0,99.807l-39.088,37.613l-106.606,0l-39.08,-37.676l0.022,-48.349l52.327,0c-0,0 0.005,0.004 0.006,0.008l5.144,-0c-0.593,-0.687 -1.429,-1.432 -2.6,-2.224c-0,-0 -4.558,-3.867 6.007,-5.171c4.607,-0.569 9.417,-3.389 11.291,-7.893c0.361,-2.948 -3.656,-4.048 -5.665,-2.693c-2.064,1.378 -6.451,2.901 -8.876,3.233c-7.602,1.042 -6.741,0.365 -5.9,-2.009c0.391,-1.096 1.141,-3.328 3.578,-5.47l-21.695,-0.008l-33.639,-33.678l-0,-104.38l39.087,-37.554l106.599,-0l39.088,37.615l0,53.467Zm5.016,-55.603l-42.078,-40.497l-110.65,-0l-42.08,40.433l0,108.594l36.577,36.619l16.775,0c-0.409,1.104 -0.942,2.81 0.217,4.477c1.27,1.834 3.462,1.834 4.284,1.834c0.999,0 2.362,-0.118 4.472,-0.392c0.004,0.002 0.01,0.008 0.01,0.008c0,-0 0.875,0.749 -1.798,1.61c-2.202,0.769 -4.117,2.03 -4.765,4.197c-0.044,0.154 -0.062,0.304 -0.089,0.457l-55.665,-0l-0.02,55.505l42.069,40.56l110.663,-0l42.078,-40.497l-0,-104.023l-36.585,-36.571l-31.028,-0c-0.016,-0.008 -0.031,-0.014 -0.041,-0.024c-1.367,-0.806 -2.778,-1.634 -4.065,-2.473l-0.462,-0.296l-0.09,-0.029c-0.679,-0.421 -1.416,-0.959 -2.221,-1.629c-0.694,-0.55 -1.269,-1.079 -1.695,-1.564l-0.119,-0.12c-0.822,-0.839 -1.522,-1.644 -2.086,-2.355c4.849,1.385 10.111,1.72 12.638,1.804l0.315,0.001c0.166,-0 0.329,0.004 0.477,0.008l0.225,0.019c0.604,0.048 1.073,0.151 1.381,0.241c0.324,0.13 0.617,0.269 0.873,0.388l1.316,0.482c0.312,0.068 0.636,0.102 0.968,0.102c1.908,0 3.675,-1.136 4.491,-2.888c0.283,-0.604 0.68,-1.809 0.369,-3.385l55.339,0.03l-0,-60.626Z" style="fill:#a90432;fill-rule:nonzero;"/></g></svg>